<svg width="64" height="64" viewBox="0 0 64 64" fill="none" xmlns="http://www.w3.org/2000/svg">
  <rect width="64" height="64" rx="14" fill="#007AFF"/>
  <path d="M32 20C31.0111 20 30.0444 20.2932 29.2222 20.8427C28.4 21.3921 27.7556 22.173 27.3778 23.0866C27 24.0002 26.9 25.0055 27.0889 25.9754C27.2778 26.9453 27.7556 27.8362 28.4444 28.5355C29.1333 29.2348 30.0222 29.7175 31 29.9083C31.9778 30.099 33 30 33.9111 29.6194C34.8222 29.2388 35.6 28.5962 36.1556 27.7652C36.7111 26.9342 37 25.9671 37 24.9833C37 23.6747 36.4889 22.4194 35.5556 21.4794C34.6222 20.5394 33.3778 20.0167 32 20ZM32 27.9833C31.5111 27.9833 31.0444 27.8367 30.6667 27.5703C30.2889 27.3038 30 26.9301 29.8444 26.5C29.6889 26.0699 29.6667 25.6014 29.7778 25.1548C29.8889 24.7082 30.1333 24.3011 30.4667 24.0014C30.8 23.7018 31.2222 23.5105 31.6667 23.4151C32.1111 23.3197 32.5778 23.3426 33 23.4963C33.4222 23.65 33.8 23.9387 34.0667 24.3208C34.3333 24.7029 34.4889 25.1548 34.4889 25.6167C34.4889 26.2243 34.2444 26.8069 33.8222 27.2319C33.4 27.657 32.8222 27.9833 32 27.9833Z" fill="white"/>
  <path d="M51.9778 34.1667L47.5556 31.1167C47.7111 30.0833 47.7111 29.05 47.5556 28.0167L51.9778 24.9667C52.2 24.8167 52.3556 24.6 52.4222 24.35C52.4889 24.1 52.4667 23.8333 52.3556 23.6L48.3556 16.4C48.2444 16.1667 48.0444 15.9833 47.8 15.8833C47.5556 15.7833 47.2889 15.7667 47.0444 15.85L41.8222 17.7667C41.0889 17.2167 40.2889 16.75 39.4444 16.3667L38.4889 10.9667C38.4444 10.7167 38.3111 10.4833 38.1111 10.3167C37.9111 10.15 37.6667 10.05 37.4222 10.0333H29.4222C29.1778 10.05 28.9333 10.15 28.7333 10.3167C28.5333 10.4833 28.4 10.7167 28.3556 10.9667L27.4 16.3667C26.5556 16.75 25.7556 17.2167 25.0222 17.7667L19.8 15.85C19.5556 15.7667 19.2889 15.7833 19.0444 15.8833C18.8 15.9833 18.6 16.1667 18.4889 16.4L14.4889 23.6C14.3778 23.8333 14.3556 24.1 14.4222 24.35C14.4889 24.6 14.6444 24.8167 14.8667 24.9667L19.2889 28.0167C19.1333 29.05 19.1333 30.0833 19.2889 31.1167L14.8667 34.1667C14.6444 34.3167 14.4889 34.5333 14.4222 34.7833C14.3556 35.0333 14.3778 35.3 14.4889 35.5333L18.4889 42.7333C18.6 42.9667 18.8 43.15 19.0444 43.25C19.2889 43.35 19.5556 43.3667 19.8 43.2833L25.0222 41.3667C25.7556 41.9167 26.5556 42.3833 27.4 42.7667L28.3556 48.1667C28.4 48.4167 28.5333 48.65 28.7333 48.8167C28.9333 48.9833 29.1778 49.0833 29.4222 49.1H37.4222C37.6667 49.0833 37.9111 48.9833 38.1111 48.8167C38.3111 48.65 38.4444 48.4167 38.4889 48.1667L39.4444 42.7667C40.2889 42.3833 41.0889 41.9167 41.8222 41.3667L47.0444 43.2833C47.2889 43.3667 47.5556 43.35 47.8 43.25C48.0444 43.15 48.2444 42.9667 48.3556 42.7333L52.3556 35.5333C52.4667 35.3 52.4889 35.0333 52.4222 34.7833C52.3556 34.5333 52.2 34.3167 51.9778 34.1667ZM46.2 40.3333L41.8889 38.7C41.6444 38.6167 41.3778 38.6167 41.1333 38.7C40.8889 38.7833 40.6889 38.95 40.5556 39.1667C39.6222 40.5 38.3778 41.5333 36.9333 42.1667C36.6889 42.2833 36.4889 42.4833 36.3778 42.7333C36.2667 42.9833 36.2444 43.25 36.3111 43.5167L37.1111 47.9167H29.7333L30.5333 43.5167C30.6 43.25 30.5778 42.9833 30.4667 42.7333C30.3556 42.4833 30.1556 42.2833 29.9111 42.1667C28.4667 41.5333 27.2222 40.5 26.2889 39.1667C26.1556 38.95 25.9556 38.7833 25.7111 38.7C25.4667 38.6167 25.2 38.6167 24.9556 38.7L20.6444 40.3333L18.1111 35.7L21.7111 33.2C21.9111 33.0667 22.0444 32.8667 22.1111 32.6333C22.1778 32.4 22.1556 32.15 22.0667 31.9333C21.6 30.6667 21.4667 29.3333 21.6 28C21.6222 27.7333 21.5556 27.4667 21.4222 27.25C21.2889 27.0333 21.0889 26.8667 20.8444 26.7833L17.2444 24.2833L19.7778 19.65L24.0889 21.2833C24.3333 21.3667 24.6 21.3667 24.8444 21.2833C25.0889 21.2 25.2889 21.0333 25.4222 20.8167C26.3556 19.4833 27.6 18.45 29.0444 17.8167C29.2889 17.7 29.4889 17.5 29.6 17.25C29.7111 17 29.7333 16.7333 29.6667 16.4667L28.8667 12.0667H36.2444L35.4444 16.4667C35.3778 16.7333 35.4 17 35.5111 17.25C35.6222 17.5 35.8222 17.7 36.0667 17.8167C37.5111 18.45 38.7556 19.4833 39.6889 20.8167C39.8222 21.0333 40.0222 21.2 40.2667 21.2833C40.5111 21.3667 40.7778 21.3667 41.0222 21.2833L45.3333 19.65L47.8667 24.2833L44.2667 26.7833C44.0222 26.8667 43.8222 27.0333 43.6889 27.25C43.5556 27.4667 43.4889 27.7333 43.5111 28C43.6444 29.3333 43.5111 30.6667 43.0444 31.9333C42.9556 32.15 42.9333 32.4 43 32.6333C43.0667 32.8667 43.2 33.0667 43.4 33.2L47 35.7L46.2 40.3333Z" fill="white"/>
</svg> 